G75*
%MOIN*%
%OFA0B0*%
%FSLAX25Y25*%
%IPPOS*%
%LPD*%
%AMOC8*
5,1,8,0,0,1.08239X$1,22.5*
%
%ADD10C,0.00000*%
%ADD11C,0.00500*%
%ADD12C,0.00600*%
D10*
X0001787Y0001787D02*
X0001787Y0073787D01*
X0087811Y0073787D01*
X0087811Y0001787D01*
X0001787Y0001787D01*
D11*
X0036236Y0011630D02*
X0036236Y0013598D01*
X0036236Y0011630D02*
X0042142Y0011630D01*
X0089386Y0011630D02*
X0126787Y0011630D01*
X0126787Y0062811D01*
X0089386Y0062811D01*
X0042142Y0062811D02*
X0036236Y0062811D01*
X0036236Y0060843D01*
D12*
X0031803Y0068032D02*
X0030690Y0068032D01*
X0030133Y0068589D01*
X0028735Y0068032D02*
X0026508Y0068032D01*
X0027621Y0068032D02*
X0027621Y0071372D01*
X0028735Y0070259D01*
X0030133Y0070816D02*
X0030690Y0071372D01*
X0031803Y0071372D01*
X0032360Y0070816D01*
X0032360Y0068589D01*
X0031803Y0068032D01*
X0032698Y0008734D02*
X0032698Y0005394D01*
X0031585Y0005394D02*
X0033812Y0005394D01*
X0035210Y0005951D02*
X0035767Y0005394D01*
X0036880Y0005394D01*
X0037437Y0005951D01*
X0037437Y0008178D01*
X0036880Y0008734D01*
X0035767Y0008734D01*
X0035210Y0008178D01*
X0033812Y0007621D02*
X0032698Y0008734D01*
X0038740Y0008734D02*
X0039854Y0008734D01*
X0039297Y0008734D02*
X0039297Y0005394D01*
X0039854Y0005394D02*
X0038740Y0005394D01*
M02*
