G75*
%MOIN*%
%OFA0B0*%
%FSLAX25Y25*%
%IPPOS*%
%LPD*%
%AMOC8*
5,1,8,0,0,1.08239X$1,22.5*
%
%ADD10R,0.03937X0.04331*%
%ADD11C,0.05906*%
%ADD12R,0.03150X0.03150*%
%ADD13C,0.02362*%
%ADD14C,0.01181*%
%ADD15C,0.01575*%
D10*
X0058480Y0021472D03*
X0065173Y0021472D03*
X0065173Y0037220D03*
X0058480Y0037220D03*
X0058480Y0052969D03*
X0065173Y0052969D03*
D11*
X0019583Y0057220D03*
X0009583Y0057220D03*
X0009583Y0047220D03*
X0019583Y0047220D03*
X0019583Y0037220D03*
X0009583Y0037220D03*
X0009583Y0027220D03*
X0019583Y0027220D03*
X0019583Y0017220D03*
X0009583Y0017220D03*
D12*
X0072654Y0021472D03*
X0078559Y0021472D03*
X0078559Y0037220D03*
X0072654Y0037220D03*
X0072654Y0052969D03*
X0078559Y0052969D03*
D13*
X0081512Y0070685D03*
X0056906Y0045094D03*
X0048047Y0053953D03*
X0045094Y0048047D03*
X0045094Y0042142D03*
X0054937Y0032299D03*
X0052969Y0026394D03*
X0047063Y0020488D03*
X0045094Y0029346D03*
X0036236Y0011630D03*
X0030331Y0056906D03*
D14*
X0029346Y0053953D02*
X0048047Y0053953D01*
X0045094Y0048047D02*
X0076591Y0048047D01*
X0078559Y0050016D01*
X0078559Y0052969D01*
X0072654Y0052969D02*
X0065173Y0052969D01*
X0056906Y0045094D02*
X0034268Y0045094D01*
X0027378Y0051984D01*
X0016551Y0051984D01*
X0011315Y0057220D01*
X0009583Y0057220D01*
X0019583Y0057220D02*
X0026079Y0057220D01*
X0029346Y0053953D01*
X0045094Y0042142D02*
X0076591Y0042142D01*
X0078559Y0040173D01*
X0078559Y0037220D01*
X0072654Y0037220D02*
X0065173Y0037220D01*
X0054937Y0032299D02*
X0023520Y0032299D01*
X0019583Y0037220D01*
X0011787Y0027220D02*
X0009583Y0027220D01*
X0011787Y0027220D02*
X0016551Y0022457D01*
X0045094Y0022457D01*
X0049031Y0026394D01*
X0052969Y0026394D01*
X0047063Y0020488D02*
X0022850Y0020488D01*
X0019583Y0017220D01*
X0045094Y0029346D02*
X0076591Y0029346D01*
X0078559Y0027378D01*
X0078559Y0021472D01*
X0072654Y0021472D02*
X0065173Y0021472D01*
D15*
X0003756Y0003756D02*
X0003756Y0071819D01*
X0078999Y0071819D01*
X0078862Y0071489D01*
X0078756Y0070956D01*
X0078756Y0070685D01*
X0078756Y0070414D01*
X0078862Y0069881D01*
X0079070Y0069380D01*
X0079371Y0068928D01*
X0079755Y0068544D01*
X0080206Y0068243D01*
X0080708Y0068035D01*
X0081240Y0067929D01*
X0081512Y0067929D01*
X0081783Y0067929D01*
X0082316Y0068035D01*
X0082817Y0068243D01*
X0083269Y0068544D01*
X0083652Y0068928D01*
X0083954Y0069380D01*
X0084162Y0069881D01*
X0084268Y0070414D01*
X0084268Y0070685D01*
X0081512Y0070685D01*
X0081512Y0070685D01*
X0084268Y0070685D01*
X0084268Y0070956D01*
X0084162Y0071489D01*
X0084025Y0071819D01*
X0085843Y0071819D01*
X0085843Y0003756D01*
X0003756Y0003756D01*
X0003756Y0004934D02*
X0085843Y0004934D01*
X0085843Y0006507D02*
X0003756Y0006507D01*
X0003756Y0008081D02*
X0085843Y0008081D01*
X0085843Y0009654D02*
X0038158Y0009654D01*
X0037993Y0009489D02*
X0038377Y0009873D01*
X0038678Y0010325D01*
X0038886Y0010826D01*
X0038992Y0011358D01*
X0038992Y0011630D01*
X0038992Y0011901D01*
X0038886Y0012434D01*
X0038678Y0012935D01*
X0038377Y0013387D01*
X0037993Y0013771D01*
X0037542Y0014072D01*
X0037040Y0014280D01*
X0036508Y0014386D01*
X0036236Y0014386D01*
X0035965Y0014386D01*
X0035432Y0014280D01*
X0034931Y0014072D01*
X0034479Y0013771D01*
X0034096Y0013387D01*
X0033794Y0012935D01*
X0033586Y0012434D01*
X0033480Y0011901D01*
X0033480Y0011630D01*
X0036236Y0011630D01*
X0036236Y0011630D01*
X0036236Y0014386D01*
X0036236Y0011630D01*
X0036236Y0011630D01*
X0033480Y0011630D01*
X0033480Y0011358D01*
X0033586Y0010826D01*
X0033794Y0010325D01*
X0034096Y0009873D01*
X0034479Y0009489D01*
X0034931Y0009188D01*
X0035432Y0008980D01*
X0035965Y0008874D01*
X0036236Y0008874D01*
X0036236Y0011630D01*
X0036236Y0011630D01*
X0036236Y0008874D01*
X0036508Y0008874D01*
X0037040Y0008980D01*
X0037542Y0009188D01*
X0037993Y0009489D01*
X0038966Y0011227D02*
X0085843Y0011227D01*
X0085843Y0012801D02*
X0038734Y0012801D01*
X0038992Y0011630D02*
X0036236Y0011630D01*
X0036236Y0011630D01*
X0038992Y0011630D01*
X0036567Y0014374D02*
X0085843Y0014374D01*
X0085843Y0015947D02*
X0024382Y0015947D01*
X0024504Y0016242D02*
X0024504Y0017929D01*
X0045168Y0017929D01*
X0045279Y0017818D01*
X0046436Y0017339D01*
X0047689Y0017339D01*
X0048847Y0017818D01*
X0049733Y0018704D01*
X0050213Y0019862D01*
X0050213Y0021115D01*
X0049733Y0022272D01*
X0049131Y0022874D01*
X0050091Y0023835D01*
X0051073Y0023835D01*
X0051184Y0023724D01*
X0052342Y0023244D01*
X0053595Y0023244D01*
X0054753Y0023724D01*
X0054960Y0023931D01*
X0054937Y0023845D01*
X0054937Y0021669D01*
X0058283Y0021669D01*
X0058283Y0021276D01*
X0054937Y0021276D01*
X0054937Y0019100D01*
X0055044Y0018699D01*
X0055252Y0018340D01*
X0055545Y0018047D01*
X0055904Y0017840D01*
X0056304Y0017732D01*
X0058283Y0017732D01*
X0058283Y0021276D01*
X0058677Y0021276D01*
X0058677Y0017732D01*
X0060656Y0017732D01*
X0061057Y0017840D01*
X0061416Y0018047D01*
X0061548Y0018180D01*
X0062389Y0017339D01*
X0067957Y0017339D01*
X0069110Y0018492D01*
X0069110Y0018913D01*
X0069279Y0018913D01*
X0070263Y0017929D01*
X0075044Y0017929D01*
X0075606Y0018492D01*
X0076169Y0017929D01*
X0080949Y0017929D01*
X0082102Y0019082D01*
X0082102Y0023863D01*
X0081118Y0024847D01*
X0081118Y0027887D01*
X0080729Y0028828D01*
X0080009Y0029547D01*
X0078040Y0031516D01*
X0077100Y0031905D01*
X0058087Y0031905D01*
X0058087Y0032926D01*
X0057857Y0033480D01*
X0058283Y0033480D01*
X0058283Y0037024D01*
X0054937Y0037024D01*
X0054937Y0035449D01*
X0054311Y0035449D01*
X0053153Y0034969D01*
X0053042Y0034858D01*
X0024750Y0034858D01*
X0024210Y0035533D01*
X0024504Y0036242D01*
X0024504Y0038199D01*
X0023755Y0040008D01*
X0022370Y0041393D01*
X0020562Y0042142D01*
X0018604Y0042142D01*
X0016795Y0041393D01*
X0015411Y0040008D01*
X0014661Y0038199D01*
X0014661Y0036242D01*
X0015411Y0034433D01*
X0016795Y0033048D01*
X0018604Y0032299D01*
X0020242Y0032299D01*
X0020368Y0032142D01*
X0018604Y0032142D01*
X0016795Y0031393D01*
X0015411Y0030008D01*
X0014661Y0028199D01*
X0014661Y0027965D01*
X0014504Y0028123D01*
X0014504Y0028199D01*
X0013755Y0030008D01*
X0012370Y0031393D01*
X0010562Y0032142D01*
X0008604Y0032142D01*
X0006795Y0031393D01*
X0005411Y0030008D01*
X0004661Y0028199D01*
X0004661Y0026242D01*
X0005411Y0024433D01*
X0006795Y0023048D01*
X0008604Y0022299D01*
X0010562Y0022299D01*
X0012349Y0023040D01*
X0015102Y0020287D01*
X0015517Y0020115D01*
X0015411Y0020008D01*
X0014661Y0018199D01*
X0014661Y0016242D01*
X0015411Y0014433D01*
X0016795Y0013048D01*
X0018604Y0012299D01*
X0020562Y0012299D01*
X0022370Y0013048D01*
X0023755Y0014433D01*
X0024504Y0016242D01*
X0024504Y0017521D02*
X0045997Y0017521D01*
X0048129Y0017521D02*
X0062207Y0017521D01*
X0058677Y0019094D02*
X0058283Y0019094D01*
X0058283Y0020667D02*
X0058677Y0020667D01*
X0058677Y0021669D02*
X0058283Y0021669D01*
X0058283Y0025213D01*
X0056304Y0025213D01*
X0055904Y0025105D01*
X0055825Y0025060D01*
X0056118Y0025767D01*
X0056118Y0026787D01*
X0075531Y0026787D01*
X0076000Y0026318D01*
X0076000Y0024847D01*
X0075606Y0024453D01*
X0075044Y0025016D01*
X0070263Y0025016D01*
X0069279Y0024031D01*
X0069110Y0024031D01*
X0069110Y0024453D01*
X0067957Y0025606D01*
X0062389Y0025606D01*
X0061548Y0024765D01*
X0061416Y0024898D01*
X0061057Y0025105D01*
X0060656Y0025213D01*
X0058677Y0025213D01*
X0058677Y0021669D01*
X0058677Y0022240D02*
X0058283Y0022240D01*
X0058283Y0023814D02*
X0058677Y0023814D01*
X0055961Y0025387D02*
X0062170Y0025387D01*
X0068176Y0025387D02*
X0076000Y0025387D01*
X0081118Y0025387D02*
X0085843Y0025387D01*
X0085843Y0026960D02*
X0081118Y0026960D01*
X0080850Y0028534D02*
X0085843Y0028534D01*
X0085843Y0030107D02*
X0079449Y0030107D01*
X0077643Y0031680D02*
X0085843Y0031680D01*
X0085843Y0033254D02*
X0068124Y0033254D01*
X0067957Y0033087D02*
X0069110Y0034240D01*
X0069110Y0034661D01*
X0069279Y0034661D01*
X0070263Y0033677D01*
X0075044Y0033677D01*
X0075606Y0034240D01*
X0076169Y0033677D01*
X0080949Y0033677D01*
X0082102Y0034830D01*
X0082102Y0039611D01*
X0081118Y0040595D01*
X0081118Y0040682D01*
X0080729Y0041623D01*
X0080009Y0042343D01*
X0078040Y0044311D01*
X0077100Y0044701D01*
X0060055Y0044701D01*
X0060055Y0045488D01*
X0077100Y0045488D01*
X0078040Y0045878D01*
X0078760Y0046598D01*
X0080009Y0047846D01*
X0080729Y0048566D01*
X0081118Y0049507D01*
X0081118Y0049594D01*
X0082102Y0050578D01*
X0082102Y0055359D01*
X0080949Y0056512D01*
X0076169Y0056512D01*
X0075606Y0055949D01*
X0075044Y0056512D01*
X0070263Y0056512D01*
X0069279Y0055528D01*
X0069110Y0055528D01*
X0069110Y0055949D01*
X0067957Y0057102D01*
X0062389Y0057102D01*
X0061548Y0056261D01*
X0061416Y0056394D01*
X0061057Y0056601D01*
X0060656Y0056709D01*
X0058677Y0056709D01*
X0058677Y0053165D01*
X0058283Y0053165D01*
X0058283Y0052772D01*
X0054937Y0052772D01*
X0054937Y0050606D01*
X0046990Y0050606D01*
X0046879Y0050717D01*
X0045721Y0051197D01*
X0044468Y0051197D01*
X0043310Y0050717D01*
X0042424Y0049831D01*
X0041945Y0048674D01*
X0041945Y0047654D01*
X0035328Y0047654D01*
X0031588Y0051394D01*
X0046152Y0051394D01*
X0046263Y0051283D01*
X0047421Y0050803D01*
X0048674Y0050803D01*
X0049831Y0051283D01*
X0050717Y0052169D01*
X0051197Y0053326D01*
X0051197Y0054579D01*
X0050717Y0055737D01*
X0049831Y0056623D01*
X0048674Y0057102D01*
X0047421Y0057102D01*
X0046263Y0056623D01*
X0046152Y0056512D01*
X0033062Y0056512D01*
X0033087Y0056634D01*
X0033087Y0056905D01*
X0030331Y0056905D01*
X0030331Y0056906D01*
X0030331Y0056906D01*
X0030331Y0059661D01*
X0030602Y0059661D01*
X0031135Y0059555D01*
X0031636Y0059348D01*
X0032087Y0059046D01*
X0032471Y0058662D01*
X0032773Y0058211D01*
X0032981Y0057709D01*
X0033087Y0057177D01*
X0033087Y0056906D01*
X0030331Y0056906D01*
X0030331Y0059661D01*
X0030059Y0059661D01*
X0029527Y0059555D01*
X0029025Y0059348D01*
X0028574Y0059046D01*
X0028223Y0058695D01*
X0027528Y0059390D01*
X0026588Y0059780D01*
X0023849Y0059780D01*
X0023755Y0060008D01*
X0022370Y0061393D01*
X0020562Y0062142D01*
X0018604Y0062142D01*
X0016795Y0061393D01*
X0015411Y0060008D01*
X0014661Y0058199D01*
X0014661Y0057493D01*
X0014504Y0057651D01*
X0014504Y0058199D01*
X0013755Y0060008D01*
X0012370Y0061393D01*
X0010562Y0062142D01*
X0008604Y0062142D01*
X0006795Y0061393D01*
X0005411Y0060008D01*
X0004661Y0058199D01*
X0004661Y0056242D01*
X0005411Y0054433D01*
X0006795Y0053048D01*
X0008604Y0052299D01*
X0010562Y0052299D01*
X0012015Y0052901D01*
X0015102Y0049815D01*
X0015697Y0049568D01*
X0015387Y0048958D01*
X0015167Y0048281D01*
X0015055Y0047577D01*
X0015055Y0047417D01*
X0019386Y0047417D01*
X0019386Y0047024D01*
X0015055Y0047024D01*
X0015055Y0046864D01*
X0015167Y0046160D01*
X0015387Y0045482D01*
X0015710Y0044848D01*
X0016129Y0044271D01*
X0016633Y0043767D01*
X0017210Y0043348D01*
X0017845Y0043025D01*
X0018522Y0042804D01*
X0019226Y0042693D01*
X0019386Y0042693D01*
X0019386Y0047024D01*
X0019780Y0047024D01*
X0019780Y0047417D01*
X0024110Y0047417D01*
X0024110Y0047577D01*
X0023999Y0048281D01*
X0023779Y0048958D01*
X0023541Y0049425D01*
X0026318Y0049425D01*
X0032818Y0042925D01*
X0033759Y0042535D01*
X0041945Y0042535D01*
X0041945Y0041515D01*
X0042424Y0040358D01*
X0043310Y0039472D01*
X0044468Y0038992D01*
X0045721Y0038992D01*
X0046879Y0039472D01*
X0046990Y0039583D01*
X0054937Y0039583D01*
X0054937Y0037417D01*
X0058283Y0037417D01*
X0058283Y0037024D01*
X0058677Y0037024D01*
X0058677Y0033480D01*
X0060656Y0033480D01*
X0061057Y0033588D01*
X0061416Y0033795D01*
X0061548Y0033928D01*
X0062389Y0033087D01*
X0067957Y0033087D01*
X0062222Y0033254D02*
X0057951Y0033254D01*
X0058283Y0034827D02*
X0058677Y0034827D01*
X0058677Y0036400D02*
X0058283Y0036400D01*
X0054937Y0036400D02*
X0024504Y0036400D01*
X0024504Y0037974D02*
X0054937Y0037974D01*
X0054937Y0039547D02*
X0046954Y0039547D01*
X0043235Y0039547D02*
X0023946Y0039547D01*
X0022643Y0041120D02*
X0042108Y0041120D01*
X0042075Y0048987D02*
X0033994Y0048987D01*
X0032421Y0050560D02*
X0043153Y0050560D01*
X0046820Y0056853D02*
X0033087Y0056853D01*
X0032629Y0058427D02*
X0085843Y0058427D01*
X0085843Y0056853D02*
X0068206Y0056853D01*
X0062140Y0056853D02*
X0049275Y0056853D01*
X0050907Y0055280D02*
X0054937Y0055280D01*
X0054937Y0055341D02*
X0054937Y0053165D01*
X0058283Y0053165D01*
X0058283Y0056709D01*
X0056304Y0056709D01*
X0055904Y0056601D01*
X0055545Y0056394D01*
X0055252Y0056101D01*
X0055044Y0055742D01*
X0054937Y0055341D01*
X0054937Y0053707D02*
X0051197Y0053707D01*
X0050682Y0052133D02*
X0054937Y0052133D01*
X0058283Y0053707D02*
X0058677Y0053707D01*
X0058677Y0055280D02*
X0058283Y0055280D01*
X0077949Y0045840D02*
X0085843Y0045840D01*
X0085843Y0044267D02*
X0078084Y0044267D01*
X0079658Y0042694D02*
X0085843Y0042694D01*
X0085843Y0041120D02*
X0080937Y0041120D01*
X0082102Y0039547D02*
X0085843Y0039547D01*
X0085843Y0037974D02*
X0082102Y0037974D01*
X0082102Y0036400D02*
X0085843Y0036400D01*
X0085843Y0034827D02*
X0082099Y0034827D01*
X0082102Y0023814D02*
X0085843Y0023814D01*
X0085843Y0022240D02*
X0082102Y0022240D01*
X0082102Y0020667D02*
X0085843Y0020667D01*
X0085843Y0019094D02*
X0082102Y0019094D01*
X0085843Y0017521D02*
X0068139Y0017521D01*
X0054939Y0019094D02*
X0049895Y0019094D01*
X0050213Y0020667D02*
X0054937Y0020667D01*
X0054937Y0022240D02*
X0049746Y0022240D01*
X0050071Y0023814D02*
X0051094Y0023814D01*
X0054843Y0023814D02*
X0054937Y0023814D01*
X0036236Y0014374D02*
X0036236Y0014374D01*
X0035905Y0014374D02*
X0023696Y0014374D01*
X0021772Y0012801D02*
X0033738Y0012801D01*
X0036236Y0012801D02*
X0036236Y0012801D01*
X0036236Y0011227D02*
X0036236Y0011227D01*
X0036236Y0009654D02*
X0036236Y0009654D01*
X0034315Y0009654D02*
X0003756Y0009654D01*
X0003756Y0011227D02*
X0033506Y0011227D01*
X0017393Y0012801D02*
X0011772Y0012801D01*
X0012370Y0013048D02*
X0013755Y0014433D01*
X0014504Y0016242D01*
X0014504Y0018199D01*
X0013755Y0020008D01*
X0012370Y0021393D01*
X0010562Y0022142D01*
X0008604Y0022142D01*
X0006795Y0021393D01*
X0005411Y0020008D01*
X0004661Y0018199D01*
X0004661Y0016242D01*
X0005411Y0014433D01*
X0006795Y0013048D01*
X0008604Y0012299D01*
X0010562Y0012299D01*
X0012370Y0013048D01*
X0013696Y0014374D02*
X0015470Y0014374D01*
X0014783Y0015947D02*
X0014382Y0015947D01*
X0014504Y0017521D02*
X0014661Y0017521D01*
X0015032Y0019094D02*
X0014133Y0019094D01*
X0014722Y0020667D02*
X0013096Y0020667D01*
X0013148Y0022240D02*
X0003756Y0022240D01*
X0003756Y0023814D02*
X0006030Y0023814D01*
X0005015Y0025387D02*
X0003756Y0025387D01*
X0003756Y0026960D02*
X0004661Y0026960D01*
X0004800Y0028534D02*
X0003756Y0028534D01*
X0003756Y0030107D02*
X0005510Y0030107D01*
X0003756Y0031680D02*
X0007490Y0031680D01*
X0008604Y0032299D02*
X0006795Y0033048D01*
X0005411Y0034433D01*
X0004661Y0036242D01*
X0004661Y0038199D01*
X0005411Y0040008D01*
X0006795Y0041393D01*
X0008604Y0042142D01*
X0010562Y0042142D01*
X0012370Y0041393D01*
X0013755Y0040008D01*
X0014504Y0038199D01*
X0014504Y0036242D01*
X0013755Y0034433D01*
X0012370Y0033048D01*
X0010562Y0032299D01*
X0008604Y0032299D01*
X0006590Y0033254D02*
X0003756Y0033254D01*
X0003756Y0034827D02*
X0005247Y0034827D01*
X0004661Y0036400D02*
X0003756Y0036400D01*
X0003756Y0037974D02*
X0004661Y0037974D01*
X0005220Y0039547D02*
X0003756Y0039547D01*
X0003756Y0041120D02*
X0006523Y0041120D01*
X0007652Y0042694D02*
X0003756Y0042694D01*
X0003756Y0044267D02*
X0005577Y0044267D01*
X0005411Y0044433D02*
X0006795Y0043048D01*
X0008604Y0042299D01*
X0010562Y0042299D01*
X0012370Y0043048D01*
X0013755Y0044433D01*
X0014504Y0046242D01*
X0014504Y0048199D01*
X0013755Y0050008D01*
X0012370Y0051393D01*
X0010562Y0052142D01*
X0008604Y0052142D01*
X0006795Y0051393D01*
X0005411Y0050008D01*
X0004661Y0048199D01*
X0004661Y0046242D01*
X0005411Y0044433D01*
X0004828Y0045840D02*
X0003756Y0045840D01*
X0003756Y0047414D02*
X0004661Y0047414D01*
X0004988Y0048987D02*
X0003756Y0048987D01*
X0003756Y0050560D02*
X0005963Y0050560D01*
X0003756Y0052133D02*
X0008584Y0052133D01*
X0010582Y0052133D02*
X0012783Y0052133D01*
X0013203Y0050560D02*
X0014356Y0050560D01*
X0014178Y0048987D02*
X0015401Y0048987D01*
X0014504Y0047414D02*
X0019386Y0047414D01*
X0019780Y0047414D02*
X0028330Y0047414D01*
X0026756Y0048987D02*
X0023764Y0048987D01*
X0024110Y0047024D02*
X0019780Y0047024D01*
X0019780Y0042693D01*
X0019939Y0042693D01*
X0020643Y0042804D01*
X0021321Y0043025D01*
X0021956Y0043348D01*
X0022532Y0043767D01*
X0023036Y0044271D01*
X0023455Y0044848D01*
X0023779Y0045482D01*
X0023999Y0046160D01*
X0024110Y0046864D01*
X0024110Y0047024D01*
X0023895Y0045840D02*
X0029903Y0045840D01*
X0031476Y0044267D02*
X0023032Y0044267D01*
X0019780Y0044267D02*
X0019386Y0044267D01*
X0019386Y0045840D02*
X0019780Y0045840D01*
X0019780Y0042694D02*
X0019386Y0042694D01*
X0019222Y0042694D02*
X0011514Y0042694D01*
X0012643Y0041120D02*
X0016523Y0041120D01*
X0015220Y0039547D02*
X0013946Y0039547D01*
X0014504Y0037974D02*
X0014661Y0037974D01*
X0014661Y0036400D02*
X0014504Y0036400D01*
X0013918Y0034827D02*
X0015247Y0034827D01*
X0016590Y0033254D02*
X0012576Y0033254D01*
X0011675Y0031680D02*
X0017490Y0031680D01*
X0015510Y0030107D02*
X0013656Y0030107D01*
X0014365Y0028534D02*
X0014800Y0028534D01*
X0006070Y0020667D02*
X0003756Y0020667D01*
X0003756Y0019094D02*
X0005032Y0019094D01*
X0004661Y0017521D02*
X0003756Y0017521D01*
X0003756Y0015947D02*
X0004783Y0015947D01*
X0005470Y0014374D02*
X0003756Y0014374D01*
X0003756Y0012801D02*
X0007393Y0012801D01*
X0019943Y0042694D02*
X0033377Y0042694D01*
X0016133Y0044267D02*
X0013589Y0044267D01*
X0014338Y0045840D02*
X0015271Y0045840D01*
X0006137Y0053707D02*
X0003756Y0053707D01*
X0003756Y0055280D02*
X0005060Y0055280D01*
X0004661Y0056853D02*
X0003756Y0056853D01*
X0003756Y0058427D02*
X0004756Y0058427D01*
X0005407Y0060000D02*
X0003756Y0060000D01*
X0003756Y0061573D02*
X0007232Y0061573D01*
X0003756Y0063147D02*
X0085843Y0063147D01*
X0085843Y0064720D02*
X0003756Y0064720D01*
X0003756Y0066293D02*
X0085843Y0066293D01*
X0085843Y0067867D02*
X0003756Y0067867D01*
X0003756Y0069440D02*
X0079045Y0069440D01*
X0078756Y0070685D02*
X0081512Y0070685D01*
X0081512Y0067929D01*
X0081512Y0070685D01*
X0081512Y0070685D01*
X0081512Y0070685D01*
X0078756Y0070685D01*
X0078767Y0071013D02*
X0003756Y0071013D01*
X0011934Y0061573D02*
X0017232Y0061573D01*
X0015407Y0060000D02*
X0013758Y0060000D01*
X0014410Y0058427D02*
X0014756Y0058427D01*
X0021934Y0061573D02*
X0085843Y0061573D01*
X0085843Y0060000D02*
X0023758Y0060000D01*
X0030331Y0058427D02*
X0030331Y0058427D01*
X0079576Y0047414D02*
X0085843Y0047414D01*
X0085843Y0048987D02*
X0080903Y0048987D01*
X0082084Y0050560D02*
X0085843Y0050560D01*
X0085843Y0052133D02*
X0082102Y0052133D01*
X0082102Y0053707D02*
X0085843Y0053707D01*
X0085843Y0055280D02*
X0082102Y0055280D01*
X0081512Y0069440D02*
X0081512Y0069440D01*
X0083979Y0069440D02*
X0085843Y0069440D01*
X0085843Y0071013D02*
X0084256Y0071013D01*
M02*
