G75*
%MOIN*%
%OFA0B0*%
%FSLAX25Y25*%
%IPPOS*%
%LPD*%
%AMOC8*
5,1,8,0,0,1.08239X$1,22.5*
%
%ADD10C,0.00000*%
%ADD11C,0.00700*%
%ADD12R,0.13780X0.15748*%
%ADD13C,0.00600*%
%ADD14C,0.00500*%
%ADD15C,0.00394*%
D10*
X0001787Y0001787D02*
X0001787Y0073787D01*
X0087811Y0073787D01*
X0087811Y0001787D01*
X0001787Y0001787D01*
D11*
X0048397Y0064145D02*
X0048397Y0067779D01*
X0050214Y0067779D01*
X0050820Y0067173D01*
X0050820Y0065962D01*
X0050214Y0065357D01*
X0048397Y0065357D01*
X0049609Y0065357D02*
X0050820Y0064145D01*
X0052385Y0064751D02*
X0052991Y0065357D01*
X0054807Y0065357D01*
X0054807Y0065962D02*
X0054202Y0066568D01*
X0052991Y0066568D01*
X0054807Y0065962D02*
X0054807Y0064145D01*
X0052991Y0064145D01*
X0052385Y0064751D01*
X0056373Y0064751D02*
X0056373Y0065962D01*
X0056978Y0066568D01*
X0058795Y0066568D01*
X0058795Y0067779D02*
X0058795Y0064145D01*
X0056978Y0064145D01*
X0056373Y0064751D01*
X0060360Y0064145D02*
X0061571Y0064145D01*
X0060966Y0064145D02*
X0060966Y0066568D01*
X0060360Y0066568D01*
X0060966Y0067779D02*
X0060966Y0068385D01*
X0063019Y0065962D02*
X0063019Y0064751D01*
X0063624Y0064145D01*
X0064836Y0064145D01*
X0065441Y0064751D01*
X0065441Y0065962D01*
X0064836Y0066568D01*
X0063624Y0066568D01*
X0063019Y0065962D01*
X0070994Y0066568D02*
X0072205Y0064145D01*
X0073417Y0066568D01*
X0074982Y0067173D02*
X0075587Y0067779D01*
X0076799Y0067779D01*
X0077404Y0067173D01*
X0077404Y0066568D01*
X0074982Y0064145D01*
X0077404Y0064145D01*
X0078969Y0064145D02*
X0079575Y0064145D01*
X0079575Y0064751D01*
X0078969Y0064751D01*
X0078969Y0064145D01*
X0080963Y0064145D02*
X0083386Y0064145D01*
X0082174Y0064145D02*
X0082174Y0067779D01*
X0080963Y0066568D01*
D12*
X0039189Y0063795D03*
D13*
X0060158Y0048734D02*
X0061828Y0048734D01*
X0062385Y0048178D01*
X0062385Y0047064D01*
X0061828Y0046508D01*
X0060158Y0046508D01*
X0060158Y0045394D02*
X0060158Y0048734D01*
X0061272Y0046508D02*
X0062385Y0045394D01*
X0063783Y0045951D02*
X0064340Y0045394D01*
X0065453Y0045394D01*
X0066010Y0045951D01*
X0066010Y0046508D01*
X0065453Y0047064D01*
X0064897Y0047064D01*
X0065453Y0047064D02*
X0066010Y0047621D01*
X0066010Y0048178D01*
X0065453Y0048734D01*
X0064340Y0048734D01*
X0063783Y0048178D01*
X0072593Y0048734D02*
X0072593Y0045394D01*
X0074263Y0045394D01*
X0074820Y0045951D01*
X0074820Y0048178D01*
X0074263Y0048734D01*
X0072593Y0048734D01*
X0076218Y0048178D02*
X0076775Y0048734D01*
X0077888Y0048734D01*
X0078445Y0048178D01*
X0078445Y0047621D01*
X0077888Y0047064D01*
X0078445Y0046508D01*
X0078445Y0045951D01*
X0077888Y0045394D01*
X0076775Y0045394D01*
X0076218Y0045951D01*
X0077331Y0047064D02*
X0077888Y0047064D01*
X0081812Y0046714D02*
X0085152Y0046714D01*
X0084595Y0048113D02*
X0085152Y0048670D01*
X0085152Y0049783D01*
X0084595Y0050339D01*
X0082368Y0050339D01*
X0081812Y0049783D01*
X0081812Y0048670D01*
X0082368Y0048113D01*
X0084595Y0048113D01*
X0083482Y0046158D02*
X0081812Y0044488D01*
X0082925Y0046714D02*
X0085152Y0044488D01*
X0085152Y0038889D02*
X0081812Y0038889D01*
X0082925Y0038889D02*
X0082925Y0037219D01*
X0083482Y0036662D01*
X0084595Y0036662D01*
X0085152Y0037219D01*
X0085152Y0038889D01*
X0082925Y0037776D02*
X0081812Y0036662D01*
X0081812Y0035264D02*
X0085152Y0033037D01*
X0085152Y0035264D02*
X0081812Y0033037D01*
X0078445Y0032430D02*
X0077888Y0032986D01*
X0076775Y0032986D01*
X0076218Y0032430D01*
X0074820Y0032430D02*
X0074263Y0032986D01*
X0072593Y0032986D01*
X0072593Y0029646D01*
X0074263Y0029646D01*
X0074820Y0030203D01*
X0074820Y0032430D01*
X0076218Y0029646D02*
X0078445Y0031873D01*
X0078445Y0032430D01*
X0078445Y0029646D02*
X0076218Y0029646D01*
X0081812Y0022028D02*
X0085152Y0022028D01*
X0085152Y0023141D02*
X0085152Y0020914D01*
X0085152Y0019516D02*
X0081812Y0017289D01*
X0081812Y0019516D02*
X0085152Y0017289D01*
X0078445Y0013898D02*
X0076218Y0013898D01*
X0077331Y0013898D02*
X0077331Y0017238D01*
X0076218Y0016125D01*
X0074820Y0016682D02*
X0074263Y0017238D01*
X0072593Y0017238D01*
X0072593Y0013898D01*
X0074263Y0013898D01*
X0074820Y0014455D01*
X0074820Y0016682D01*
X0066010Y0013898D02*
X0063783Y0013898D01*
X0064897Y0013898D02*
X0064897Y0017238D01*
X0063783Y0016125D01*
X0062385Y0015568D02*
X0061828Y0015012D01*
X0060158Y0015012D01*
X0061272Y0015012D02*
X0062385Y0013898D01*
X0062385Y0015568D02*
X0062385Y0016682D01*
X0061828Y0017238D01*
X0060158Y0017238D01*
X0060158Y0013898D01*
X0060158Y0029646D02*
X0060158Y0032986D01*
X0061828Y0032986D01*
X0062385Y0032430D01*
X0062385Y0031316D01*
X0061828Y0030760D01*
X0060158Y0030760D01*
X0061272Y0030760D02*
X0062385Y0029646D01*
X0063783Y0029646D02*
X0066010Y0031873D01*
X0066010Y0032430D01*
X0065453Y0032986D01*
X0064340Y0032986D01*
X0063783Y0032430D01*
X0063783Y0029646D02*
X0066010Y0029646D01*
X0081812Y0051738D02*
X0085152Y0053965D01*
X0084595Y0055363D02*
X0083482Y0055363D01*
X0082925Y0055920D01*
X0082925Y0057590D01*
X0081812Y0057590D02*
X0085152Y0057590D01*
X0085152Y0055920D01*
X0084595Y0055363D01*
X0082925Y0056476D02*
X0081812Y0055363D01*
X0081812Y0053965D02*
X0085152Y0051738D01*
X0033401Y0007396D02*
X0033401Y0004056D01*
X0034514Y0004056D02*
X0032287Y0004056D01*
X0030332Y0004613D02*
X0030332Y0007396D01*
X0029775Y0007396D02*
X0030889Y0007396D01*
X0032287Y0006282D02*
X0033401Y0007396D01*
X0030332Y0004613D02*
X0029775Y0004056D01*
X0029219Y0004056D01*
X0028662Y0004613D01*
D14*
X0026394Y0002220D02*
X0002772Y0002220D01*
X0002772Y0072220D01*
X0026394Y0072220D01*
X0026394Y0042673D01*
X0029346Y0042673D01*
X0029346Y0037220D01*
X0029346Y0031768D01*
X0026394Y0031768D01*
X0026394Y0037220D01*
X0026394Y0042673D01*
X0026394Y0031768D02*
X0026394Y0002220D01*
D15*
X0074819Y0021472D02*
X0076394Y0022654D01*
X0076394Y0020291D01*
X0074819Y0021472D01*
X0074918Y0021398D02*
X0076394Y0021398D01*
X0076394Y0021006D02*
X0075441Y0021006D01*
X0075964Y0020614D02*
X0076394Y0020614D01*
X0076394Y0021790D02*
X0075243Y0021790D01*
X0075766Y0022182D02*
X0076394Y0022182D01*
X0076394Y0022575D02*
X0076288Y0022575D01*
X0076394Y0036039D02*
X0076394Y0038402D01*
X0074819Y0037220D01*
X0076394Y0036039D01*
X0076394Y0036302D02*
X0076043Y0036302D01*
X0076394Y0036694D02*
X0075520Y0036694D01*
X0074998Y0037086D02*
X0076394Y0037086D01*
X0076394Y0037479D02*
X0075163Y0037479D01*
X0075686Y0037871D02*
X0076394Y0037871D01*
X0076394Y0038263D02*
X0076209Y0038263D01*
X0076394Y0051787D02*
X0076394Y0054150D01*
X0074819Y0052969D01*
X0076394Y0051787D01*
X0076394Y0051991D02*
X0076123Y0051991D01*
X0076394Y0052383D02*
X0075600Y0052383D01*
X0075077Y0052775D02*
X0076394Y0052775D01*
X0076394Y0053167D02*
X0075084Y0053167D01*
X0075607Y0053559D02*
X0076394Y0053559D01*
X0076394Y0053952D02*
X0076130Y0053952D01*
M02*
