%
M48
M72
T01C0.01378
T02C0.03937
%
T01
X36236Y11630
X47063Y20488
X52969Y26394
X54937Y32299
X45094Y29346
X45094Y42142
X45094Y48047
X48047Y53953
X56906Y45094
X30331Y56906
X81512Y70685
T02
X9583Y17220
X19583Y17220
X19583Y27220
X9583Y27220
X9583Y37220
X19583Y37220
X19583Y47220
X9583Y47220
X9583Y57220
X19583Y57220
M30
